{"accessors" : [{"bufferView" : 0, "byteOffset" : 0, "componentType" : 5123, "count" : 3348, "type" : "SCALAR", "max" : [3025], "min" : [0]}, {"bufferView" : 1, "byteOffset" : 0, "componentType" : 5126, "count" : 3026, "type" : "VEC3", "max" : [5.948500156402588, 15.502195358276367, 5.598342418670654], "min" : [-4.129157543182373, -1.6434898376464844, -3.6810319423675537], "name" : "POSITION"}, {"bufferView" : 1, "byteOffset" : 12, "componentType" : 5126, "count" : 3026, "type" : "VEC3", "max" : [0.9991108775138855, 0.9997628331184387, 0.9999096393585205], "min" : [-0.9982087016105652, -0.9994736313819885, -0.9984050393104553], "name" : "NORMAL"}, {"bufferView" : 0, "byteOffset" : 6696, "componentType" : 5123, "count" : 960, "type" : "SCALAR", "max" : [931], "min" : [0]}, {"bufferView" : 2, "byteOffset" : 0, "componentType" : 5126, "count" : 932, "type" : "VEC3", "max" : [1.116955280303955, 1.30933678150177, 2.276538133621216], "min" : [-2.2042722702026367, -1.6818276643753052, -1.662764310836792], "name" : "POSITION"}, {"bufferView" : 2, "byteOffset" : 12, "componentType" : 5126, "count" : 932, "type" : "VEC3", "max" : [0.9979287981987, 0.9958756566047668, 0.9984211921691895], "min" : [-0.9976862072944641, -0.9969932436943054, -0.998292863368988], "name" : "NORMAL"}], "asset" : {"generator" : "Aspose.3D 24.9.1", "version" : "2.0"}, "buffers" : [{"uri" : "data:application/octet-stream;base64,", "byteLength" : 103620}], "bufferViews" : [{"buffer" : 0, "byteOffset" : 0, "byteLength" : 8616, "target" : 34963}, {"buffer" : 0, "byteOffset" : 8620, "byteLength" : 72624, "byteStride" : 24, "target" : 34962}, {"buffer" : 0, "byteOffset" : 81248, "byteLength" : 22368, "byteStride" : 24, "target" : 34962}], "meshes" : [{"primitives" : [{"attributes" : {"POSITION" : 1, "NORMAL" : 2}, "indices" : 0, "mode" : 4}]}, {"primitives" : [{"attributes" : {"POSITION" : 4, "NORMAL" : 5}, "indices" : 3, "mode" : 4}]}], "nodes" : [{"mesh" : 0, "name" : "Cylinder"}, {"matrix" : [4.967619895935059, 0, 0, 0, 0, 4.967619895935059, 0, 0, 0, 0, 4.967619895935059, 0, 3.5053367614746094, 13.675734519958496, -1.1728194952011108, 1], "mesh" : 1, "name" : "Icosphere"}], "scene" : 0, "scenes" : [{"nodes" : [0, 1]}]}